<?xml version="1.0" encoding="utf-8"?>
<!-- Generator: Adobe Illustrator 16.0.0, SVG Export Plug-In . SVG Version: 6.00 Build 0)  -->
<!DOCTYPE svg PUBLIC "-//W3C//DTD SVG 1.1//EN" "http://www.w3.org/Graphics/SVG/1.1/DTD/svg11.dtd">
<svg version="1.1" id="Layer_1" xmlns="http://www.w3.org/2000/svg" xmlns:xlink="http://www.w3.org/1999/xlink" x="0px" y="0px"
	 width="225px" height="67.333px" viewBox="0 0 225 67.333" enable-background="new 0 0 225 67.333" xml:space="preserve">
<path fill-rule="evenodd" clip-rule="evenodd" d="M219.76,48.896c-0.01,0.41-0.02,0.819-0.029,1.227c-0.022,0-0.044,0-0.066,0.003
	c-0.063-2.724-0.635-5.313-2.013-7.691c-1.711-2.954-4.303-4.866-7.396-6.155c-2.496-1.042-5.124-1.624-7.772-2.108
	c-3.281-0.601-6.592-0.966-9.908-1.308c-2.467-0.256-4.94-0.45-7.411-0.694c-5.029-0.499-10.062-0.971-15.022-1.981
	c-0.553-0.112-0.976-0.438-1.396-0.763c-2.472-1.919-4.985-3.778-7.704-5.343c-5.24-3.012-10.83-5.115-16.688-6.536
	c-3.131-0.763-6.298-1.313-9.493-1.702c-5.018-0.616-10.059-0.772-15.111-0.768c-13.743,0.013-27.484-0.024-41.227-0.122
	c-10.923-0.079-21.846-0.181-32.77-0.289c-4.766-0.044-9.53-0.127-14.294-0.196c-0.003-0.049-0.007-0.098-0.012-0.147
	c6.08-0.076,12.159-0.17,18.237-0.225c11.685-0.107,23.369-0.184,35.052-0.293c12.192-0.112,24.383-0.025,36.576-0.112
	c2.991-0.02,5.982,0.024,8.968,0.249c9.694,0.731,19.06,2.773,27.848,7.089c3.889,1.91,7.507,4.24,10.832,7
	c0.988,0.819,2.099,1.078,3.276,1.293c3.696,0.672,7.421,1.156,11.154,1.586c2.967,0.343,5.938,0.631,8.903,0.98
	c4.951,0.584,9.903,1.167,14.708,2.561c3.106,0.902,6.01,2.203,8.389,4.473c2.325,2.212,3.661,4.936,4.171,8.088
	C219.659,47.636,219.73,48.264,219.76,48.896z"/>
<path fill-rule="evenodd" clip-rule="evenodd" fill="#F26722" d="M133.6,50.28c0.876-2.79,1.814-5.812,2.688-8.602
	c0.137-0.436,0.281-0.869,0.387-1.311c0.057-0.235,0.167-0.309,0.39-0.307c0.934,0.005,1.868,0.008,2.802-0.002
	c0.254-0.003,0.295,0.096,0.225,0.318c-0.525,1.662-1.052,3.327-1.572,4.993c-0.201,0.643-0.395,1.29-0.532,1.753
	c0.569-0.517,1.268-1.115,1.923-1.756c0.565-0.548,1.081-1.145,1.62-1.717c0.119-0.124,0.233-0.249,0.437-0.246
	c0.632,0.01,1.262,0.002,2.044,0.002c-0.772,0.795-1.459,1.496-2.171,2.227c0.45,0.154,0.885-0.005,1.291,0.159
	c0.584,0.233,0.797,0.558,0.672,1.167c-0.179,0.863-0.464,1.694-0.748,2.528c-0.184,0.537-0.166,0.579,0.409,0.581
	c0.998,0,1.994,0.005,2.992-0.002c0.343-0.003,0.431,0.075,0.242,0.403c-0.407,0.712-1.049,1.052-1.819,1.099
	c-1.501,0.093-3.008,0.056-4.511,0.007c-0.768-0.026-1.157-0.632-0.925-1.377c0.25-0.795,0.494-1.592,0.743-2.386
	c0.027-0.091,0.079-0.174,0.013-0.271c-0.223-0.02-0.316,0.176-0.444,0.296c-1.154,1.042-2.299,2.096-3.451,3.137
	c-0.459,0.413-0.995,0.641-1.626,0.621c-0.267-0.007-0.537-0.01-0.807,0.008c-0.377,0.024-0.787,0.11-0.547-0.648
	c-0.708,0.663-1.466,0.65-2.229,0.646c-1.978-0.012-3.959,0.005-5.937-0.026c-1.249-0.02-2.382-0.38-3.254-1.417
	c-0.299,0.603-0.697,1.066-1.327,1.294c-0.196,0.071-0.389,0.128-0.597,0.13c-1.44,0.005-2.882,0.01-4.322,0.015
	c-0.635,0.003-1.054-0.281-1.22-0.978c-0.587,0.875-1.425,1.022-2.362,0.992c-1.25-0.039-2.501-0.015-3.752-0.026
	c-0.476-0.005-0.915-0.096-1.092-0.634c-0.068-0.207-0.177-0.051-0.232,0c-0.595,0.572-1.326,0.68-2.106,0.655
	c-0.522-0.017-1.046-0.01-1.568-0.015c-1.178-0.012-1.681-0.882-1.343-1.953c0.457-1.451,1.011-2.868,1.519-4.301
	c0.055-0.154,0.136-0.23,0.307-0.23c1.076,0.005,2.15,0.003,3.288,0.003c-0.368,1.039-0.715,2.029-1.069,3.018
	c-0.19,0.532-0.38,1.067-0.59,1.594c-0.112,0.281-0.029,0.363,0.253,0.354c0.396-0.012,0.793-0.029,1.187,0.005
	c0.322,0.027,0.454-0.131,0.545-0.391c0.51-1.436,1.023-2.868,1.526-4.308c0.059-0.169,0.113-0.276,0.314-0.274
	c1.074,0.005,2.147,0.003,3.246,0.003c-0.547,1.527-1.073,3.02-1.614,4.506c-0.129,0.355-0.087,0.481,0.342,0.464
	c0.949-0.036,1.9-0.031,2.849,0c0.338,0.01,0.475-0.104,0.567-0.405c0.432-1.411,0.891-2.812,1.31-4.229
	c0.081-0.272,0.188-0.346,0.446-0.344c0.903,0.01,1.806,0.02,2.708-0.007c0.354-0.01,0.358,0.145,0.28,0.393
	c-0.343,1.094-0.689,2.188-1.03,3.284c-0.109,0.345-0.197,0.697-0.322,1.037c-0.071,0.196-0.024,0.264,0.17,0.264
	c1.187,0,2.37,0,3.602,0c-0.353-0.974-0.243-1.858,0.218-2.722c0.525-0.98,1.403-1.496,2.392-1.868
	c0.76-0.285,1.556-0.397,2.37-0.378c0.742,0.015,1.488,0.007,2.233,0.002c0.866-0.01,1.526,0.347,1.91,1.13
	c0.281,0.579,0.091,1.41-0.384,1.878c-0.621,0.611-1.452,0.768-2.274,0.408c-0.654-0.287-1.065-0.771-1.086-1.514
	c-0.01-0.284-0.109-0.364-0.39-0.387c-0.526-0.041-0.9,0.029-1.032,0.647c-0.105,0.502-0.328,0.979-0.495,1.471
	c-0.275,0.816,0.039,1.298,0.917,1.31c2.013,0.024,4.023,0.015,6.033,0.018c0.41,0.002,1.12-0.097,1.53-0.1"/>
<path fill-rule="evenodd" clip-rule="evenodd" fill="#F26722" d="M174.896,56.664c-24.581,0.772-49.159,0.761-73.734-0.176
	c24.705-0.943,49.41-0.958,74.115-0.163c0.346,0.173,0.756-0.024,1.182,0.192C175.89,56.662,175.376,56.498,174.896,56.664z"/>
<path fill-rule="evenodd" clip-rule="evenodd" d="M27.507,30.68c42.77-0.438,85.539-0.44,128.447-0.024
	C153.651,31.171,31.239,31.191,27.507,30.68z"/>
<path fill-rule="evenodd" clip-rule="evenodd" d="M17.476,27.433c13.324-0.413,26.651-0.548,39.981-0.462
	c6.442,0.042,12.883,0.142,19.324,0.291c1.82,0.044,3.638,0.11,5.458,0.167c0.084,0.002,0.168,0.007,0.254,0.105
	c-0.352,0.025-0.703,0.057-1.055,0.066c-5.158,0.156-10.317,0.266-15.477,0.334c-11.302,0.149-22.604,0.161-33.905-0.034
	c-4.637-0.081-9.273-0.203-13.909-0.305C17.945,27.442,17.671,27.602,17.476,27.433z"/>
<path fill-rule="evenodd" clip-rule="evenodd" d="M91.656,23.129c-16.416,0.963-32.838,0.956-49.2,0.071
	c-0.059-0.081-0.058-0.078-0.055-0.078c0.011-0.007,0.022-0.024,0.034-0.024C58.84,22.124,75.245,22.192,91.656,23.129z"/>
<path fill-rule="evenodd" clip-rule="evenodd" fill="#F26722" d="M76.56,33.915c-18.818,0.606-39.441,0.775-58.232,0.152
	c0-0.056,0-0.113,0-0.169c3.782-0.098,7.562-0.208,11.342-0.295c7.215-0.164,14.432-0.162,21.649-0.142
	c6.647,0.017,18.675,0.222,25.319,0.416L76.56,33.915z"/>
<path fill-rule="evenodd" clip-rule="evenodd" fill="#F26722" d="M72.524,44.666c-14.534,0.98-29.066,0.961-43.601,0.002
	C43.458,43.711,57.992,43.711,72.524,44.666z"/>
<path fill-rule="evenodd" clip-rule="evenodd" d="M32.523,19.276c17.605-0.702,35.212-0.707,52.817,0
	C67.735,19.997,50.129,19.992,32.523,19.276z"/>
<path fill-rule="evenodd" clip-rule="evenodd" fill="#F26722" d="M165.5,43.397c-1.48,0-2.599-0.938-2.675-2.188
	c-0.091-1.54,1.356-2.668,2.938-2.457c0.967,0.13,1.723,0.62,2.084,1.552c0.45,1.15-0.198,2.46-1.391,2.9
	C166.133,43.324,165.808,43.46,165.5,43.397z"/>
<path fill-rule="evenodd" clip-rule="evenodd" fill="#F26722" d="M118.48,43.473c-1.403,0.032-2.227-0.803-2.472-1.492
	c-0.392-1.104-0.076-2.025,0.944-2.692c1.066-0.696,2.581-0.485,3.435,0.476c1.155,1.302,0.389,3.183-1.24,3.621
	C118.925,43.446,118.693,43.532,118.48,43.473z"/>
<path fill-rule="evenodd" clip-rule="evenodd" d="M204.915,56.485c4.626-0.97,9.25-0.96,13.871,0.003
	C214.163,57.441,209.539,57.454,204.915,56.485z"/>
<path fill-rule="evenodd" clip-rule="evenodd" d="M207.536,38.495c0.436,1.818,1.763,2.579,3.221,3.193
	c1.822,0.768,3.756,1.156,5.644,1.697c0.42,0.12,0.834,0.253,1.239,0.427c-2.785,0.485-5.487,0.316-7.99-1.12
	c-1.05-0.604-1.893-1.425-2.199-2.665C207.331,39.543,207.331,39.059,207.536,38.495z"/>
<g>
	<path fill-rule="evenodd" clip-rule="evenodd" fill="#F26722" d="M65.827,50.966c1.539-0.111,1.66-0.074,2.489-0.15
		c-1.771-0.157-2.034-0.223-3.059-0.191c-19.911-0.792-39.819-0.74-59.727,0.177C25.627,51.75,45.727,51.782,65.827,50.966z"/>
	<path fill-rule="evenodd" clip-rule="evenodd" fill="#F26722" d="M70.768,56.346c-5.439-0.188-10.881-0.288-16.323-0.357
		c-8.149-0.103-16.299-0.098-24.449,0.081c-3.637,0.078-7.276,0.115-10.913,0.26c-0.11,0.047-0.22,0.091-0.377,0.155
		c0.382,0.23,0.8-0.021,1.136,0.187c1.106,0.036,2.212,0.088,3.319,0.11c4.097,0.078,8.195,0.169,12.292,0.218
		c7.612,0.085,15.223,0.063,22.835-0.079c4.001-0.075,8.002-0.184,12.004-0.273c1.181-0.042,2.042-0.003,2.891-0.22
		C72.376,56.339,71.865,56.372,70.768,56.346z"/>
</g>
<path fill-rule="evenodd" clip-rule="evenodd" fill="#E8C097" d="M182.885,52.637"/>
<path fill-rule="evenodd" clip-rule="evenodd" fill="#E8C097" d="M133.46,50.064"/>
<path fill-rule="evenodd" clip-rule="evenodd" fill="#F26722" d="M76.169,39.313c-19.091-0.654-38.747-0.765-57.839-0.105
	c0.012,0.113,0.144,0.089,0.188,0.162c1.77,0.063,3.539,0.159,5.311,0.184c2.879,0.044,5.758,0.137,8.638,0.169
	c5.554,0.062,11.111,0.054,16.666,0.073c8.482,0.032,16.962-0.135,25.44-0.408c0.5,0.015,1.001,0.034,1.489-0.094
	C75.909,39.173,76.322,39.287,76.169,39.313z"/>
<path fill-rule="evenodd" clip-rule="evenodd" fill="#FEFDFC" d="M168.381,51.133c0.007-0.062,0.056-0.13,0.098-0.104
	c0.074,0.047,0.035,0.123-0.015,0.179C168.435,51.184,168.407,51.16,168.381,51.133z"/>
<g>
	<path fill-rule="evenodd" clip-rule="evenodd" fill="#F26722" d="M97.983,38.844c-5.042-4.952-13.646-4.357-19.217,1.303
		c-0.726,0.74-1.357,1.536-1.907,2.36c0.479-0.69,1.009-1.36,1.624-1.983c5.257-5.343,13.414-5.864,18.221-1.145
		c4.79,4.72,4.421,12.881-0.834,18.229c-5.259,5.345-13.414,5.866-18.214,1.146c-2.364-2.324-3.46-5.486-3.35-8.734
		c-0.176,3.485,0.971,6.879,3.489,9.355c5.038,4.952,13.639,4.358,19.212-1.303C102.578,52.405,103.008,43.795,97.983,38.844z"/>
	<path fill-rule="evenodd" clip-rule="evenodd" fill="#F26722" d="M79.606,56.432c-0.419-0.411-0.769-0.866-1.083-1.338
		c0.398,0.696,0.86,1.36,1.455,1.944c3.919,3.852,10.597,3.403,14.917-0.985c4.316-4.394,4.639-11.077,0.729-14.931
		c-3.55-3.486-9.345-3.415-13.617-0.122c3.947-2.712,9.079-2.624,12.265,0.509c3.668,3.611,3.364,9.878-0.682,13.999
		C89.54,59.621,83.278,60.043,79.606,56.432z"/>
</g>
<path fill-rule="evenodd" clip-rule="evenodd" fill="#F26722" d="M91.155,45.719c-1.593-1.564-4.279-1.41-6,0.338
	c-0.305,0.31-0.54,0.655-0.743,1.013c0.19-0.213,0.379-0.414,0.549-0.588c1.522-1.542,3.864-1.714,5.229-0.373
	c1.363,1.339,1.236,3.685-0.284,5.232c-1.521,1.545-3.862,1.714-5.226,0.372c-0.063-0.062-0.13-0.128-0.195-0.191
	c0.131,0.188,0.27,0.371,0.438,0.535c1.591,1.565,4.276,1.414,5.998-0.334C92.641,49.972,92.743,47.282,91.155,45.719z"/>
<path fill="#F26722" d="M94.181,41.34c-0.181-0.262-0.625-0.137-0.625-0.137s-5.605,5.563-5.882,5.788
	c-0.486,0.381-0.201,0.765-0.201,0.765l0.234,0.235l0.023-0.024c0.061,0.051,0.247,0.137,0.649-0.252
	c0.338-0.333,5.92-5.749,5.92-5.749S94.438,41.527,94.181,41.34z"/>
<path fill="#F26722" d="M96.922,55.815c0.234-0.213,0.044-0.638,0.044-0.638s-8.099-5.972-8.356-6.215
	c-0.45-0.426-0.791-0.088-0.791-0.088l-0.198,0.263l0.028,0.022c-0.043,0.065-0.103,0.262,0.343,0.604
	c0.377,0.288,8.326,6.262,8.326,6.262S96.772,56.099,96.922,55.815z"/>
<g>
	<path fill-rule="evenodd" clip-rule="evenodd" fill="#F26722" d="M203.047,38.844c-5.041-4.952-13.644-4.357-19.214,1.303
		c-0.728,0.74-1.359,1.536-1.907,2.36c0.479-0.69,1.008-1.36,1.624-1.983c5.258-5.343,13.414-5.864,18.221-1.145
		c4.787,4.72,4.422,12.881-0.836,18.229c-5.257,5.345-13.414,5.866-18.212,1.146c-2.366-2.324-3.462-5.486-3.349-8.734
		c-0.177,3.485,0.968,6.879,3.486,9.355c5.036,4.952,13.639,4.358,19.214-1.303C207.644,52.405,208.075,43.795,203.047,38.844z"/>
	<path fill-rule="evenodd" clip-rule="evenodd" fill="#F26722" d="M184.67,56.432c-0.417-0.411-0.768-0.866-1.081-1.338
		c0.396,0.696,0.86,1.36,1.453,1.944c3.921,3.852,10.597,3.403,14.919-0.985c4.314-4.394,4.636-11.077,0.729-14.931
		c-3.551-3.486-9.346-3.415-13.62-0.122c3.946-2.712,9.082-2.624,12.265,0.509c3.668,3.611,3.364,9.878-0.679,13.999
		C194.606,59.621,188.342,60.043,184.67,56.432z"/>
</g>
<g>
	<path fill="#F26722" d="M206.212,44.685C206.153,44.719,206.334,44.685,206.212,44.685c-2.819-0.008-10.133,0.044-12.952,0.044
		c-0.758,0-1.51,0.027-2.265,0.157c-2.374,0.406-4.239,2.211-3.734,4.896c0.057,0.305-0.041,0.351-0.297,0.349
		c-0.811-0.008-1.617-0.022-2.424,0.005c-0.428,0.012-0.525-0.103-0.333-0.496c0.137-0.279,0.223-0.584,0.32-0.883
		c0.297-0.895,0.712-1.75,0.883-2.682c0.125-0.676-0.171-1.135-0.78-1.24c-0.571-0.098-1.13-0.018-1.669,0.193
		c-0.868,0.335-1.478,1.032-2.175,1.599c-0.56,0.455-1.105,0.922-1.657,1.385c0.037-0.365,0.156-0.666,0.27-0.971
		c0.12-0.323,0.241-0.646,0.344-0.976c0.218-0.702-0.062-1.152-0.79-1.235c-1.01-0.112-1.934,0.132-2.73,0.774
		c-1.066,0.861-2.123,1.736-3.22,2.639c-0.027-0.249,0.034-0.435,0.096-0.628c0.229-0.719,0.43-1.447,0.682-2.16
		c0.12-0.341,0-0.404-0.302-0.399c-0.726,0.01-1.454,0.01-2.184,0.012c-0.919,0.003-0.893,0.01-1.155,0.917
		c-0.372,1.283-0.782,2.555-1.191,3.829c-0.044,0.14-0.062,0.322-0.33,0.314c-1.075-0.021-2.151-0.017-3.225,0
		c-0.372,0.005-0.434-0.136-0.328-0.459c0.458-1.424,0.897-2.851,1.362-4.27c0.086-0.264,0.037-0.337-0.23-0.337
		c-0.934,0.005-1.868,0-2.802-0.007c-0.271-0.003-0.409,0.085-0.493,0.378c-0.424,1.465-0.886,2.92-1.336,4.378
		c-0.063,0.212-0.172,0.329-0.431,0.324c-1.09-0.02-2.183-0.022-3.276-0.013c-0.318,0.003-0.338-0.126-0.252-0.373
		c0.181-0.534,0.362-1.068,0.528-1.606c0.798-2.588,1.58-5.177,2.398-7.756c0.128-0.401,0.027-0.461-0.323-0.456
		c-0.885,0.013-1.772,0.02-2.66,0.01c-0.229-0.002-0.329,0.074-0.396,0.292c-0.343,1.127-0.703,2.252-1.051,3.379
		c-0.678,2.176-1.341,4.357-2.027,6.53c-0.258,0.813,0.007,1.334,0.833,1.495c0.216,0.042,0.438,0.057,0.659,0.059
		c1.106,0.005,2.217-0.007,3.324,0.005c0.956,0.01,1.805-0.234,2.494-1.015c0.161,0.829,0.763,0.988,1.431,1.003
		c0.935,0.021,1.868-0.013,2.803,0.015c0.971,0.029,2.033-0.079,2.878-0.642c0.007-0.062-0.062-0.059-0.02-0.032
		c0.074,0.047,0.035,0.123-0.015,0.179c-0.098,0.372-0.01,0.541,0.427,0.5c0.55-0.052,1.108-0.022,1.66-0.042
		c0.424-0.017,0.79-0.184,1.115-0.46c1.071-0.905,2.152-1.803,3.224-2.707c0.108-0.093,0.202-0.195,0.368-0.174
		c0.057,0.145-0.002,0.267-0.054,0.401c-0.182,0.469-0.356,0.939-0.521,1.413c-0.396,1.162,0.104,1.775,1.315,1.653
		c0.851-0.085,1.482-0.582,2.103-1.09c1.013-0.832,2.008-1.683,3.089-2.592c-0.086,0.701-0.33,1.248-0.507,1.812
		c-0.275,0.875,0.299,1.741,1.223,1.756c1.312,0.024,2.621,0.012,3.935,0.007c0.396,0,0.907,0.027,1.144-0.21
		c0.684-0.688,1.193-0.39,1.747,0.117c0.078,0.073,0.183,0.12,0.28,0.169c1.307,0.657,2.699,0.701,4.118,0.599
		c1.261-0.091,2.394-0.485,3.317-1.375c1.135-1.092,1.437-2.908,0.694-4.112c-0.06-0.1-0.241-0.179-0.153-0.313
		c0.084-0.124,0.261-0.078,0.396-0.078c0.766,0,8.063,0,8.828,0.003l0,0 M191.724,46.779c0.075-0.238,0.247-0.309,0.475-0.307
		c0.301,0.003,0.602,0,0.902,0s0.601,0.005,0.902,0c0.271-0.005,0.323,0.118,0.237,0.357c-0.429,1.201-0.854,2.403-1.265,3.609
		c-0.057,0.164-0.142,0.249-0.296,0.252c-0.488,0.008-0.98,0.003-1.433-0.228c-0.372-0.188-0.546-0.508-0.426-0.902
		C191.103,48.626,191.424,47.706,191.724,46.779z"/>
</g>
<g>
	<path d="M213.532,9.104V5.558h-1.328V5.083h3.189v0.475h-1.331v3.546H213.532z"/>
	<path d="M215.921,9.104V5.083h0.802l0.951,2.846c0.086,0.265,0.151,0.463,0.19,0.595c0.047-0.146,0.118-0.361,0.214-0.644
		l0.963-2.797h0.719v4.021h-0.516V5.739l-1.169,3.365h-0.479l-1.163-3.422v3.422H215.921z"/>
</g>
</svg>
